<svg xmlns="http://www.w3.org/2000/svg" viewBox="0 0 294.77 146.54"><defs><style>.cls-1{fill:#231815;}</style></defs><title>資產 1</title><g id="圖層_2" data-name="圖層 2"><g id="圖層_1-2" data-name="圖層 1"><path class="cls-1" d="M1,63.14a3.49,3.49,0,0,1,3.81-3.47,86.93,86.93,0,0,0,8.73.3H28c3,0,5.39-.06,7.63-.22a3.45,3.45,0,0,1,3.67,3.65c-.2,3.22-.27,6.91-.27,13v33.75a3.43,3.43,0,0,0,.54,1.87c2.3,3.6,4.11,5.15,7.62,6.69,5.59,2.27,14.5,3.32,29.61,3.32,22.72,0,38.91-.52,53.92-1.83a9.67,9.67,0,0,1,10.31,11.69c-.54,2.55-1,5.2-1.44,8.52a3.49,3.49,0,0,1-3.35,3c-13.23.39-38.47.65-59.44.65-26.41,0-37.31-2.58-46.69-11.58a3.53,3.53,0,0,0-4.73-.15c-2.59,2.23-4.43,3.6-9,6.9-2,1.36-3.62,2.57-5.43,3.93h0a3.44,3.44,0,0,1-5.25-1.47L.58,129a9.12,9.12,0,0,1,3.71-10.88l.17-.1A24.92,24.92,0,0,0,16.71,96.61c0-5.77,0-11.47,0-12.86,0-2.68-1.92-2.43-3-2.45l-3.39,0c-1.18,0-2.21,0-3.23.07A5.82,5.82,0,0,1,1,75.55Z"/><path class="cls-1" d="M41.55,15.74v-11A4.36,4.36,0,0,1,46.26.43c4.44.35,9,.44,16.14.44h56.21c6.34,0,11.32-.17,16-.51a4.35,4.35,0,0,1,4.67,4.34V17.32a4.35,4.35,0,0,1-4.58,4.35c-3.32-.18-7.18-.25-13.1-.25h-63c-9.76,0-12.1,0-14.39.2a2.31,2.31,0,0,1-2.5-2.2Z"/><path class="cls-1" d="M139.74,95.62a116.14,116.14,0,0,1-12.26.48H122.9a2.31,2.31,0,0,1-2.06-3.37c.49-.94,1-2,2-3.88.31-.64.48-1,1.23-2.41a2.32,2.32,0,0,0-1.47-3.31h0a2.32,2.32,0,0,1,.59-4.56h1c3.38,0,5.58.08,7.84.24a2.33,2.33,0,0,0,2.49-2.51c-.27-3.35-.36-6.45-.36-10.87V45.92c0-4.68-3-13.76-7.15-17.85a2.69,2.69,0,0,0-4.53,1.75h0a5.37,5.37,0,0,1-5.36,4.93L65,34.71c-4.21-.62-2.37-5.79-4.66-6.39-5.94-1.53-11.23,11.43-11.23,17.61V67.84c0,4.13-.07,6.5-.21,8.5a2.29,2.29,0,0,0,2.45,2.45c2.08-.14,4.24-.22,7-.22h.82a2.08,2.08,0,0,1,.7,4,2.21,2.21,0,0,0-1.35,3.26,50.16,50.16,0,0,1,3.84,7,2.33,2.33,0,0,1-2.14,3.25H54.8c-3.08,0-5.33-.07-7.26-.26A2.32,2.32,0,0,0,45,98.14v16a2.3,2.3,0,0,0,2.39,2.31c3-.11,6.35-.21,10.15-.21h70.16a14.6,14.6,0,0,0,14.61-14.61V97.93A2.32,2.32,0,0,0,139.74,95.62ZM101.22,81.56a104.72,104.72,0,0,1-5.44,13.25,2.3,2.3,0,0,1-2.07,1.29H70.22l13.19-3.17A2.31,2.31,0,0,0,85,89.79,66.75,66.75,0,0,0,81.17,82a2.29,2.29,0,0,1,2-3.43H99A2.3,2.3,0,0,1,101.22,81.56ZM114.14,55c0,6.51-4.65,11.83-10.49,11.89l-24.58.35c-5.84,0-10.62-5.18-10.67-11.69l0-1.7a3.1,3.1,0,0,1,2.89-3.27l39.92-.5a3.08,3.08,0,0,1,2.93,3.21Z"/><path class="cls-1" d="M153.05,33.05a3.83,3.83,0,0,1,4.13-3.84c2.18.18,4.61.24,8.11.24h29.46c3.79,0,6.11-.06,8.2-.17a3.84,3.84,0,0,1,4,3.84V44.86a3.84,3.84,0,0,1-4,3.85c-1.73-.08-3.89-.08-7.93-.08H165.29c-3.33,0-5.82.06-8.14.22a3.85,3.85,0,0,1-4.1-3.84Z"/><path class="cls-1" d="M163.26,1.62c.3-1.17,1.31-1.87,2.17-1.54a64.46,64.46,0,0,0,8.22,2.53l15.36,4a67.25,67.25,0,0,0,8.42,1.79,1.8,1.8,0,0,1,1.15,2.39L195.27,25.6c-.3,1.14-1.27,1.85-2.12,1.55-2.29-.8-4.65-1.51-8.29-2.46l-15.36-4c-3.54-.92-6.08-1.47-8.44-1.88a1.8,1.8,0,0,1-1.1-2.39Z"/><path class="cls-1" d="M157.73,57.59a3.84,3.84,0,0,1,4-3.85c1.24,0,2.69,0,5,0h29.91c2,0,3.38,0,4.52,0A3.85,3.85,0,0,1,205,57.6v8.81a3.85,3.85,0,0,1-3.94,3.86c-1.19,0-2.59,0-4.52,0H166.65c-2.34,0-3.76,0-5,0a3.84,3.84,0,0,1-4-3.85Z"/><path class="cls-1" d="M157.73,79a3.85,3.85,0,0,1,3.94-3.85c1.28,0,2.77,0,5,0h29.76c2,0,3.49,0,4.68,0A3.85,3.85,0,0,1,205,79.05v8.88a3.84,3.84,0,0,1-4,3.85c-1.33,0-2.93-.09-5.08-.09H166.35c-2,0-3.44,0-4.68,0a3.85,3.85,0,0,1-3.94-3.85Z"/><path class="cls-1" d="M290.18,116.86a70.92,70.92,0,0,1-16.42-13.64,2.48,2.48,0,0,1,1.86-4.12h4.5c5.58,0,8.93.09,12,.34A2.48,2.48,0,0,0,294.77,97V87.23a8.16,8.16,0,0,0-8.41-8.16c-2,.06-4.35.08-7.45.08H263.1a2.46,2.46,0,0,1-2.47-2.47v-1a2.47,2.47,0,0,1,2.47-2.47h13.09c4.93,0,8.49.09,11.89.35A2.47,2.47,0,0,0,290.72,71c-.24-3.14-.33-6.7-.33-11.75V21.89c0-.78,0-1.53,0-2.25a11.75,11.75,0,0,0-11.77-11.8H225c-2.24,0-4.18,0-5.9,0a7.71,7.71,0,0,0-7.9,7.88c0,1.58.05,3.4.05,5.62V59.81c0,4.68-.09,8.06-.32,11.13a2.46,2.46,0,0,0,2.68,2.64c2.94-.23,5.94-.32,10.48-.32h13.55a2.48,2.48,0,0,1,2.47,2.47v1a2.47,2.47,0,0,1-2.47,2.47h-13.4a123.85,123.85,0,0,1-13.16-.44,2.47,2.47,0,0,0-2.7,2.46V97A2.46,2.46,0,0,0,211,99.43c3-.24,6.43-.33,12-.33h1.57a2.47,2.47,0,0,1,2,3.94,70.54,70.54,0,0,1-16.93,16.08,2.48,2.48,0,0,1-3.87-2.05V106.2c0-3.55,0-5.46.08-7.11a2.48,2.48,0,0,0-2.65-2.6c-1.82.13-3.79.19-6.34.19H168c-4.87,0-6.68,0-8.43-.09A2.48,2.48,0,0,0,157,99.27c.23,2.54.31,4.84.31,8.29v24.33c0,3.81-.2,8-.52,12a2.46,2.46,0,0,0,2.46,2.65h16.29a2.48,2.48,0,0,0,2.47-2.47v-1.25a2.47,2.47,0,0,1,2.47-2.47h3.36a2.44,2.44,0,0,1,2.34,2.3,2.05,2.05,0,0,0,2,1.78h15.33a2.45,2.45,0,0,0,2.46-2.62c-.13-1.84-.19-4-.19-6.6h0a2.48,2.48,0,0,1,4.52-1.39c1.43,2.08,2.74,4.18,4.18,6.71a2.51,2.51,0,0,0,3.73.71c8.1-6.49,12.89-11.13,17.27-17.11a2.46,2.46,0,0,1,4.45,1.44v7.07a103.35,103.35,0,0,1-.43,11,2.47,2.47,0,0,0,2.45,2.74h17a2.46,2.46,0,0,0,2.44-2.75,98.06,98.06,0,0,1-.57-11.3V125a2.46,2.46,0,0,1,4.42-1.49,62.85,62.85,0,0,0,5.85,6.61c1.42,1.38,2.7,2.62,3.92,3.76a10.23,10.23,0,0,0,16.09-2.76c.6-1.16,1.22-2.3,1.87-3.44A8,8,0,0,0,290.18,116.86Zm-103.89,3a2.48,2.48,0,0,1-2.47,2.48h-4a2.48,2.48,0,0,1-2.48-2.48v-4.27a2.48,2.48,0,0,1,2.48-2.47h4a2.48,2.48,0,0,1,2.47,2.47Zm54.09-66.17a2.48,2.48,0,0,1-2.47,2.47h-4.43A2.48,2.48,0,0,1,231,53.72V51.26a2.47,2.47,0,0,1,2.47-2.47h4.43a2.47,2.47,0,0,1,2.47,2.47Zm0-23a2.47,2.47,0,0,1-2.47,2.47h-4.43A2.47,2.47,0,0,1,231,30.75V28.29a2.47,2.47,0,0,1,2.47-2.47h4.43a2.47,2.47,0,0,1,2.47,2.47Zm19.79-2.46a2.47,2.47,0,0,1,2.48-2.47h5a2.47,2.47,0,0,1,2.48,2.47v2.46a2.47,2.47,0,0,1-2.48,2.47h-5a2.47,2.47,0,0,1-2.48-2.47Zm0,23a2.47,2.47,0,0,1,2.48-2.47h5.17a2.47,2.47,0,0,1,2.48,2.47v2.46a2.48,2.48,0,0,1-2.48,2.47h-5.17a2.48,2.48,0,0,1-2.48-2.47Z"/><path class="cls-1" d="M34.89,29.29c0,8.42-2.44,11.14-7.6,16a26.65,26.65,0,0,1-11.84,6.92A5,5,0,0,1,9.71,49.8l-3-5.32A2.94,2.94,0,0,1,8.5,40.19a19.51,19.51,0,0,0,8.62-4.13h0c4.17-3.86,1.3-6.77-4.29-6.77H9.43A6.28,6.28,0,0,1,3.26,22.9V7.54A6.28,6.28,0,0,1,9.43,1.15H25.16a9.9,9.9,0,0,1,9.73,10.07Z"/></g></g></svg>