<svg xmlns="http://www.w3.org/2000/svg" viewBox="0 0 289.93 52.76"><defs><style>.cls-1{fill:#231815;}</style></defs><title>dogtor_eng_logo</title><g id="圖層_2" data-name="圖層 2"><g id="圖層_1-2" data-name="圖層 1"><path class="cls-1" d="M37.92,7.29Q31.38.94,19.37.94H4.16A4.16,4.16,0,0,0,0,5.1V46.32a4.15,4.15,0,0,0,4.16,4.15H19.37q12,0,18.55-6.41t6.55-18.35Q44.47,13.64,37.92,7.29Zm-9.71,28.3q-3.45,3.28-10.06,3.28H15.49a3.07,3.07,0,0,1-3.07-3.08V15.63a3.07,3.07,0,0,1,3.07-3.08h2.66q6.62,0,10.06,3.27t3.44,9.89Q31.65,32.33,28.21,35.59Z"/><path class="cls-1" d="M127.33,52a25.87,25.87,0,0,1-13.12-3.24,22.69,22.69,0,0,1-8.77-9,27.79,27.79,0,0,1-3.14-13.46,27.9,27.9,0,0,1,1.89-10.46A23.58,23.58,0,0,1,117.52,2.4a26.77,26.77,0,0,1,10-1.85,25.76,25.76,0,0,1,13.79,3.51,19.6,19.6,0,0,1,8.2,10c.32.77.09,1.22-.67,1.35l-10.33,2.84a1.15,1.15,0,0,1-1.35-.61,10,10,0,0,0-4-3.64A12.8,12.8,0,0,0,118.7,16.3q-3.37,3.61-3.38,10t3.44,10a11.89,11.89,0,0,0,9,3.58A13,13,0,0,0,135,38l2-1.63c2.22-2.09.88-5.21-2.11-5.21h-1c-2.47,0-6-.7-6-3.18l-.14-2.64c0-2,1.6-2.78,3.56-2.78h17.35A2.38,2.38,0,0,1,151,24.93l.13,5a22.85,22.85,0,0,1-2.74,11.2,19.67,19.67,0,0,1-8,7.89A26.72,26.72,0,0,1,127.33,52Z"/><path class="cls-1" d="M170.48,50.47a4.15,4.15,0,0,1-4.15-4.15V15.83a3.08,3.08,0,0,0-3.08-3.08h-8.08a4.09,4.09,0,0,1-4.09-4.08V2c0-.71.34-1.08,1-1.08H190A4.16,4.16,0,0,1,194.2,5.1v6.64c0,.68-.36,1-1.08,1H182A3.07,3.07,0,0,0,179,15.83V46.32a4.15,4.15,0,0,1-4.16,4.15Z"/><path class="cls-1" d="M243.08,15.25A23.71,23.71,0,0,0,229.62,1.86a28.84,28.84,0,0,0-20.38,0,23.78,23.78,0,0,0-13.46,13.39,27.52,27.52,0,0,0-1.92,10.46,27.55,27.55,0,0,0,1.92,10.46,23.78,23.78,0,0,0,13.46,13.39,28.84,28.84,0,0,0,20.38,0,23.71,23.71,0,0,0,13.46-13.39A27.36,27.36,0,0,0,245,25.71,27.33,27.33,0,0,0,243.08,15.25Zm-13,17.54a11.41,11.41,0,0,1-4.39,4.38,14.35,14.35,0,0,1-13.13,0,11.32,11.32,0,0,1-4.41-4.38,12.9,12.9,0,0,1-1.59-6.47c0-2.45.6-3.93,1.59-6.47.76-2,2.54-5.78,4.42-6.84s2.84,4.49,6.43,4.49c3.83,0,4.83-5.55,6.7-4.49s3.48,4.9,4.38,6.84a13.6,13.6,0,0,1,1.58,6.47A13,13,0,0,1,230.11,32.79Z"/><path class="cls-1" d="M97.17,16.59A23.82,23.82,0,0,0,83.7,3.19a29,29,0,0,0-20.37,0,23.76,23.76,0,0,0-13.46,13.4,27.33,27.33,0,0,0-1.93,10.46,27.36,27.36,0,0,0,1.93,10.46A23.71,23.71,0,0,0,63.33,50.9a28.82,28.82,0,0,0,20.37,0A23.76,23.76,0,0,0,97.17,37.51a27.55,27.55,0,0,0,1.92-10.46A27.52,27.52,0,0,0,97.17,16.59Zm-13,16.32c-.9,1.94-2.51,5.78-4.38,6.83s-2.87-4.49-6.7-4.49c-3.59,0-4.54,5.55-6.43,4.49S63,34.89,62.26,32.91c-1-2.55-1.59-4-1.59-6.47A12.85,12.85,0,0,1,62.26,20a11.31,11.31,0,0,1,4.42-4.39,14.33,14.33,0,0,1,13.12,0A11.43,11.43,0,0,1,84.19,20a13,13,0,0,1,1.58,6.47A13.63,13.63,0,0,1,84.19,32.91Z"/><path class="cls-1" d="M289.74,49.19,282.67,35.5a3,3,0,0,1,.65-3.65,14,14,0,0,0,3.32-4.56,20.32,20.32,0,0,0,1.69-8.53q0-8.78-5-13.3T267.54.94H254.09a4.16,4.16,0,0,0-4.16,4.16V48.35a2.12,2.12,0,0,0,2.12,2.12h6.14a4.15,4.15,0,0,0,4.16-4.15V39.65a3.07,3.07,0,0,1,3.07-3.08h2.12c.81,0,1.6,0,2.37-.07l6.27,13.16a1.21,1.21,0,0,0,1.21.81h11.54a1,1,0,0,0,.88-.37A.76.76,0,0,0,289.74,49.19ZM273.38,24.36a9.54,9.54,0,0,1-6,1.69h-1.92A3.07,3.07,0,0,1,262.35,23V14.55a3.07,3.07,0,0,1,3.07-3.08h1.92a9.48,9.48,0,0,1,6,1.69q2.13,1.68,2.13,5.6T273.38,24.36Z"/></g></g></svg>

